# xmcd
#
# Track frame offsets: 
#        150
#        12990
#        28143
#        48396
#        62771
#        78828
#        92692
#        113293
#        130731
#        148093
#        164206
#        179647
#        195102
#        212413
#        229213
#        254005
#        270995
#        286657
#        301525
#        323941
#        341164
#
# Disc length: 4734 seconds
#
# Revision: 1
# Processed by: cddbd v1.5.1PL0 Copyright (c) Steve Scherf et al.
# Submitted via: ExactAudioCopy v0.95b2
#
DISCID=23127c15
DTITLE=Шансон - Шансон XXXL 6
DYEAR=2001
DGENRE=
TTITLE0=Михаил Шуфутинский - Новый год
TTITLE1=Воровайки - Всё ерунда
TTITLE2=Александр Розенбаум - Я вернулся
TTITLE3=Гарик Кричевский - Улетают годы
TTITLE4=Юрий Алмазов - Вот такая история
TTITLE5=Александр Дюмин - Озорной
TTITLE6=Катя Огонёк - Приветы на снегу
TTITLE7=Геннадий Жаров - Гармошка
TTITLE8=Василий Акимов - Берёзы - тополя
TTITLE9=Бутырка - Тает снег
TTITLE10=Беломорканал - Арестантская душа
TTITLE11=Михаил Шелег - Шофёрская
TTITLE12=Гриша Заречный - Обезьянник
TTITLE13=Соловей- разбойник - не бей товарищ мент
TTITLE14=Анатолий Полотно - Против ветра
TTITLE15=Владимир Утёсов - Измайлово
TTITLE16=Дэвид Оган - С понтом под зонтом
TTITLE17=Федя Карманов - Денежки
TTITLE18=Михаил Гулько - Моя Москва
TTITLE19=Ефрем Амиранов - Алёнка
TTITLE20=Артём Беркут - Русская зима
EXTD=
EXTT0=
EXTT1=
EXTT2=
EXTT3=
EXTT4=
EXTT5=
EXTT6=
EXTT7=
EXTT8=
EXTT9=
EXTT10=
EXTT11=
EXTT12=
EXTT13=
EXTT14=
EXTT15=
EXTT16=
EXTT17=
EXTT18=
EXTT19=
EXTT20=
PLAYORDER=
